<mxfile host="app.diagrams.net" modified="2022-08-16T01:18:36.129Z" agent="5.0 (Macintosh; Intel Mac OS X 10_15_7) AppleWebKit/605.1.15 (KHTML, like Gecko) Version/15.6 Safari/605.1.15" etag="T7qtMUSxXo2jwcdvbUhy" version="20.2.2" type="github">
  <diagram id="1IKJCTbsGaUYKKO47xjI" name="第 1 页">
    <mxGraphModel dx="892" dy="633" grid="1" gridSize="10" guides="1" tooltips="1" connect="1" arrows="1" fold="1" page="1" pageScale="1" pageWidth="827" pageHeight="1169" math="0" shadow="0">
      <root>
        <mxCell id="0" />
        <mxCell id="1" parent="0" />
        <mxCell id="GfMrxpTLSSzK-2QtQXJH-1" value="原文" style="rounded=0;whiteSpace=wrap;html=1;" vertex="1" parent="1">
          <mxGeometry x="30" y="170" width="120" height="60" as="geometry" />
        </mxCell>
        <mxCell id="GfMrxpTLSSzK-2QtQXJH-2" value="原文" style="rounded=0;whiteSpace=wrap;html=1;" vertex="1" parent="1">
          <mxGeometry x="680" y="170" width="120" height="60" as="geometry" />
        </mxCell>
        <mxCell id="GfMrxpTLSSzK-2QtQXJH-3" value="" style="endArrow=classic;html=1;rounded=0;exitX=1;exitY=0.5;exitDx=0;exitDy=0;entryX=0;entryY=0.5;entryDx=0;entryDy=0;" edge="1" parent="1" source="GfMrxpTLSSzK-2QtQXJH-1" target="GfMrxpTLSSzK-2QtQXJH-2">
          <mxGeometry width="50" height="50" relative="1" as="geometry">
            <mxPoint x="310" y="390" as="sourcePoint" />
            <mxPoint x="360" y="340" as="targetPoint" />
          </mxGeometry>
        </mxCell>
        <mxCell id="GfMrxpTLSSzK-2QtQXJH-4" value="签名值" style="rounded=0;whiteSpace=wrap;html=1;" vertex="1" parent="1">
          <mxGeometry x="30" y="460" width="120" height="60" as="geometry" />
        </mxCell>
        <mxCell id="GfMrxpTLSSzK-2QtQXJH-5" value="hash" style="endArrow=classic;html=1;rounded=0;exitX=0.5;exitY=1;exitDx=0;exitDy=0;entryX=0.5;entryY=0;entryDx=0;entryDy=0;" edge="1" parent="1" source="GfMrxpTLSSzK-2QtQXJH-1" target="GfMrxpTLSSzK-2QtQXJH-4">
          <mxGeometry relative="1" as="geometry">
            <mxPoint x="290" y="370" as="sourcePoint" />
            <mxPoint x="390" y="370" as="targetPoint" />
          </mxGeometry>
        </mxCell>
        <mxCell id="GfMrxpTLSSzK-2QtQXJH-6" value="hash" style="edgeLabel;resizable=0;html=1;align=center;verticalAlign=middle;" connectable="0" vertex="1" parent="GfMrxpTLSSzK-2QtQXJH-5">
          <mxGeometry relative="1" as="geometry" />
        </mxCell>
        <mxCell id="GfMrxpTLSSzK-2QtQXJH-7" value="加密后的签名值" style="rounded=0;whiteSpace=wrap;html=1;" vertex="1" parent="1">
          <mxGeometry x="250" y="470" width="90" height="40" as="geometry" />
        </mxCell>
        <mxCell id="GfMrxpTLSSzK-2QtQXJH-8" value="Alice" style="text;html=1;strokeColor=none;fillColor=none;align=center;verticalAlign=middle;whiteSpace=wrap;rounded=0;" vertex="1" parent="1">
          <mxGeometry x="20" y="130" width="60" height="30" as="geometry" />
        </mxCell>
        <mxCell id="GfMrxpTLSSzK-2QtQXJH-9" value="" style="endArrow=classic;html=1;rounded=0;exitX=1;exitY=0.5;exitDx=0;exitDy=0;entryX=0;entryY=0.5;entryDx=0;entryDy=0;" edge="1" parent="1" source="GfMrxpTLSSzK-2QtQXJH-4" target="GfMrxpTLSSzK-2QtQXJH-7">
          <mxGeometry relative="1" as="geometry">
            <mxPoint x="340" y="400" as="sourcePoint" />
            <mxPoint x="440" y="400" as="targetPoint" />
          </mxGeometry>
        </mxCell>
        <mxCell id="GfMrxpTLSSzK-2QtQXJH-10" value="A的私钥加密" style="edgeLabel;resizable=0;html=1;align=center;verticalAlign=middle;" connectable="0" vertex="1" parent="GfMrxpTLSSzK-2QtQXJH-9">
          <mxGeometry relative="1" as="geometry" />
        </mxCell>
        <mxCell id="GfMrxpTLSSzK-2QtQXJH-13" value="签名数据" style="rounded=0;whiteSpace=wrap;html=1;" vertex="1" parent="1">
          <mxGeometry x="235" y="300" width="120" height="50" as="geometry" />
        </mxCell>
        <mxCell id="GfMrxpTLSSzK-2QtQXJH-14" value="" style="endArrow=classic;html=1;rounded=0;exitX=0.5;exitY=0;exitDx=0;exitDy=0;entryX=0.5;entryY=1;entryDx=0;entryDy=0;" edge="1" parent="1" source="GfMrxpTLSSzK-2QtQXJH-7" target="GfMrxpTLSSzK-2QtQXJH-13">
          <mxGeometry relative="1" as="geometry">
            <mxPoint x="340" y="400" as="sourcePoint" />
            <mxPoint x="440" y="400" as="targetPoint" />
          </mxGeometry>
        </mxCell>
        <mxCell id="GfMrxpTLSSzK-2QtQXJH-15" value="Raw&lt;br&gt;dtache&lt;br&gt;atache" style="edgeLabel;resizable=0;html=1;align=center;verticalAlign=middle;" connectable="0" vertex="1" parent="GfMrxpTLSSzK-2QtQXJH-14">
          <mxGeometry relative="1" as="geometry" />
        </mxCell>
        <mxCell id="GfMrxpTLSSzK-2QtQXJH-16" value="" style="endArrow=none;dashed=1;html=1;dashPattern=1 3;strokeWidth=2;rounded=0;" edge="1" parent="1">
          <mxGeometry width="50" height="50" relative="1" as="geometry">
            <mxPoint x="400" y="550" as="sourcePoint" />
            <mxPoint x="400" y="150" as="targetPoint" />
          </mxGeometry>
        </mxCell>
        <mxCell id="GfMrxpTLSSzK-2QtQXJH-17" value="" style="endArrow=classic;html=1;rounded=0;exitX=1;exitY=0.5;exitDx=0;exitDy=0;entryX=0;entryY=0.5;entryDx=0;entryDy=0;" edge="1" parent="1" source="GfMrxpTLSSzK-2QtQXJH-13" target="GfMrxpTLSSzK-2QtQXJH-18">
          <mxGeometry width="50" height="50" relative="1" as="geometry">
            <mxPoint x="360" y="330" as="sourcePoint" />
            <mxPoint x="440" y="330" as="targetPoint" />
          </mxGeometry>
        </mxCell>
        <mxCell id="GfMrxpTLSSzK-2QtQXJH-18" value="签名数据" style="rounded=0;whiteSpace=wrap;html=1;" vertex="1" parent="1">
          <mxGeometry x="440" y="300" width="120" height="50" as="geometry" />
        </mxCell>
        <mxCell id="GfMrxpTLSSzK-2QtQXJH-19" value="签名值" style="rounded=0;whiteSpace=wrap;html=1;" vertex="1" parent="1">
          <mxGeometry x="680" y="460" width="120" height="60" as="geometry" />
        </mxCell>
        <mxCell id="GfMrxpTLSSzK-2QtQXJH-20" value="签名值" style="rounded=0;whiteSpace=wrap;html=1;" vertex="1" parent="1">
          <mxGeometry x="455" y="470" width="90" height="40" as="geometry" />
        </mxCell>
        <mxCell id="GfMrxpTLSSzK-2QtQXJH-21" value="" style="endArrow=classic;startArrow=classic;html=1;rounded=0;exitX=1;exitY=0.5;exitDx=0;exitDy=0;entryX=0;entryY=0.5;entryDx=0;entryDy=0;" edge="1" parent="1" source="GfMrxpTLSSzK-2QtQXJH-20" target="GfMrxpTLSSzK-2QtQXJH-19">
          <mxGeometry width="50" height="50" relative="1" as="geometry">
            <mxPoint x="380" y="440" as="sourcePoint" />
            <mxPoint x="440" y="390" as="targetPoint" />
          </mxGeometry>
        </mxCell>
        <mxCell id="GfMrxpTLSSzK-2QtQXJH-22" value="hash" style="endArrow=classic;html=1;rounded=0;exitX=0.5;exitY=1;exitDx=0;exitDy=0;entryX=0.5;entryY=0;entryDx=0;entryDy=0;" edge="1" parent="1">
          <mxGeometry relative="1" as="geometry">
            <mxPoint x="739.5" y="230" as="sourcePoint" />
            <mxPoint x="739.5" y="460" as="targetPoint" />
          </mxGeometry>
        </mxCell>
        <mxCell id="GfMrxpTLSSzK-2QtQXJH-23" value="hash" style="edgeLabel;resizable=0;html=1;align=center;verticalAlign=middle;" connectable="0" vertex="1" parent="GfMrxpTLSSzK-2QtQXJH-22">
          <mxGeometry relative="1" as="geometry" />
        </mxCell>
        <mxCell id="GfMrxpTLSSzK-2QtQXJH-24" value="" style="endArrow=classic;html=1;rounded=0;exitX=0.5;exitY=1;exitDx=0;exitDy=0;entryX=0.5;entryY=0;entryDx=0;entryDy=0;" edge="1" parent="1" source="GfMrxpTLSSzK-2QtQXJH-18" target="GfMrxpTLSSzK-2QtQXJH-20">
          <mxGeometry relative="1" as="geometry">
            <mxPoint x="370" y="420" as="sourcePoint" />
            <mxPoint x="470" y="420" as="targetPoint" />
          </mxGeometry>
        </mxCell>
        <mxCell id="GfMrxpTLSSzK-2QtQXJH-25" value="A的公钥解密" style="edgeLabel;resizable=0;html=1;align=center;verticalAlign=middle;" connectable="0" vertex="1" parent="GfMrxpTLSSzK-2QtQXJH-24">
          <mxGeometry relative="1" as="geometry" />
        </mxCell>
        <mxCell id="GfMrxpTLSSzK-2QtQXJH-26" value="Bob" style="text;html=1;strokeColor=none;fillColor=none;align=center;verticalAlign=middle;whiteSpace=wrap;rounded=0;" vertex="1" parent="1">
          <mxGeometry x="750" y="129" width="60" height="30" as="geometry" />
        </mxCell>
      </root>
    </mxGraphModel>
  </diagram>
</mxfile>
